<mxfile host="app.diagrams.net" modified="2020-11-05T14:44:56.872Z" agent="5.0 (Windows NT 10.0; Win64; x64) AppleWebKit/537.36 (KHTML, like Gecko) Chrome/86.0.4240.183 Safari/537.36" etag="oultVO8QWJq5CkBqKgAT" version="13.9.1" type="github">
  <diagram id="M5uCK1uci6Pwz9eSJxL2" name="Page-1">
    <mxGraphModel dx="4890" dy="3455" grid="1" gridSize="10" guides="1" tooltips="1" connect="1" arrows="1" fold="1" page="1" pageScale="1" pageWidth="827" pageHeight="1169" background="none" math="0" shadow="0">
      <root>
        <mxCell id="0" />
        <mxCell id="1" parent="0" />
        <mxCell id="KRRsPl_IIyR4YD8K1_N0-156" value="" style="whiteSpace=wrap;html=1;labelBackgroundColor=none;fillColor=none;fontSize=40;dashed=1;" parent="1" vertex="1">
          <mxGeometry x="20" y="130" width="5610" height="880" as="geometry" />
        </mxCell>
        <mxCell id="KRRsPl_IIyR4YD8K1_N0-212" style="edgeStyle=orthogonalEdgeStyle;rounded=0;orthogonalLoop=1;jettySize=auto;html=1;entryX=0.5;entryY=1;entryDx=0;entryDy=0;strokeColor=#CC0000;fontSize=16;fontColor=#000000;exitX=1;exitY=0.5;exitDx=0;exitDy=0;" parent="1" source="KRRsPl_IIyR4YD8K1_N0-177" target="KRRsPl_IIyR4YD8K1_N0-87" edge="1">
          <mxGeometry relative="1" as="geometry">
            <mxPoint x="4970" y="1430" as="sourcePoint" />
            <Array as="points">
              <mxPoint x="4990" y="1740" />
              <mxPoint x="4990" y="780" />
              <mxPoint x="2250" y="780" />
            </Array>
          </mxGeometry>
        </mxCell>
        <mxCell id="KRRsPl_IIyR4YD8K1_N0-307" value="" style="rounded=0;whiteSpace=wrap;html=1;labelBackgroundColor=none;strokeColor=#6c8ebf;fillColor=#dae8fc;fontSize=27;" parent="1" vertex="1">
          <mxGeometry x="4740" y="380" width="720" height="120" as="geometry" />
        </mxCell>
        <mxCell id="KRRsPl_IIyR4YD8K1_N0-295" value="" style="rounded=0;whiteSpace=wrap;html=1;labelBackgroundColor=none;fontSize=27;fillColor=#bac8d3;strokeColor=#23445d;" parent="1" vertex="1">
          <mxGeometry x="3960" y="490" width="750" height="240" as="geometry" />
        </mxCell>
        <mxCell id="KRRsPl_IIyR4YD8K1_N0-222" style="edgeStyle=orthogonalEdgeStyle;rounded=0;orthogonalLoop=1;jettySize=auto;html=1;entryX=0;entryY=0.5;entryDx=0;entryDy=0;strokeColor=#000000;fontSize=16;fontColor=#000000;" parent="1" source="KRRsPl_IIyR4YD8K1_N0-283" target="KRRsPl_IIyR4YD8K1_N0-208" edge="1">
          <mxGeometry relative="1" as="geometry">
            <Array as="points">
              <mxPoint x="3520" y="-30" />
              <mxPoint x="3520" y="1740" />
            </Array>
          </mxGeometry>
        </mxCell>
        <mxCell id="KRRsPl_IIyR4YD8K1_N0-284" value="" style="rounded=0;whiteSpace=wrap;html=1;labelBackgroundColor=none;strokeColor=#d6b656;fillColor=#fff2cc;fontSize=27;" parent="1" vertex="1">
          <mxGeometry x="3180" y="720" width="750" height="250" as="geometry" />
        </mxCell>
        <mxCell id="KRRsPl_IIyR4YD8K1_N0-158" value="" style="whiteSpace=wrap;html=1;fillColor=#d5e8d4;strokeColor=#82b366;" parent="1" vertex="1">
          <mxGeometry x="1490" y="1159" width="450" height="80" as="geometry" />
        </mxCell>
        <mxCell id="KRRsPl_IIyR4YD8K1_N0-28" value="" style="verticalLabelPosition=bottom;verticalAlign=top;html=1;shape=mxgraph.basic.rect;fillColor2=none;strokeWidth=1;size=20;indent=5;fillColor=#f5f5f5;strokeColor=#666666;fontColor=#333333;" parent="1" vertex="1">
          <mxGeometry x="920" y="260" width="440" height="240" as="geometry" />
        </mxCell>
        <mxCell id="KRRsPl_IIyR4YD8K1_N0-27" value="" style="whiteSpace=wrap;html=1;fillColor=#d5e8d4;strokeColor=#82b366;" parent="1" vertex="1">
          <mxGeometry x="1370" y="260" width="460" height="110" as="geometry" />
        </mxCell>
        <mxCell id="KRRsPl_IIyR4YD8K1_N0-10" value="" style="whiteSpace=wrap;html=1;fillColor=#d5e8d4;strokeColor=#82b366;" parent="1" vertex="1">
          <mxGeometry x="70" y="260" width="830" height="200" as="geometry" />
        </mxCell>
        <mxCell id="KRRsPl_IIyR4YD8K1_N0-4" style="edgeStyle=orthogonalEdgeStyle;orthogonalLoop=1;jettySize=auto;html=1;entryX=0;entryY=0.5;entryDx=0;entryDy=0;" parent="1" source="KRRsPl_IIyR4YD8K1_N0-1" target="KRRsPl_IIyR4YD8K1_N0-3" edge="1">
          <mxGeometry relative="1" as="geometry" />
        </mxCell>
        <mxCell id="KRRsPl_IIyR4YD8K1_N0-1" value="&lt;font style=&quot;font-size: 16px&quot;&gt;Herion, craving knight&amp;nbsp;&lt;br&gt;갈망의 기사&lt;br&gt;&lt;/font&gt;" style="whiteSpace=wrap;html=1;" parent="1" vertex="1">
          <mxGeometry x="80" y="280" width="180" height="60" as="geometry" />
        </mxCell>
        <mxCell id="KRRsPl_IIyR4YD8K1_N0-7" value="" style="edgeStyle=orthogonalEdgeStyle;orthogonalLoop=1;jettySize=auto;html=1;" parent="1" source="KRRsPl_IIyR4YD8K1_N0-3" target="KRRsPl_IIyR4YD8K1_N0-5" edge="1">
          <mxGeometry relative="1" as="geometry" />
        </mxCell>
        <mxCell id="KRRsPl_IIyR4YD8K1_N0-3" value="&lt;span style=&quot;color: rgb(68 , 68 , 68) ; font-family: &amp;#34;noto sans&amp;#34; , &amp;#34;noto sans jp&amp;#34; , &amp;#34;noto sans kr&amp;#34; , &amp;#34;helvetica&amp;#34; , &amp;#34;microsoft yahei&amp;#34; , &amp;#34;apple sd gothic neo&amp;#34; , &amp;#34;malgun gothic&amp;#34; , &amp;#34;맑은 고딕&amp;#34; , &amp;#34;dotum&amp;#34; , , sans-serif ; font-size: 16px ; text-align: left ; background-color: rgb(255 , 255 , 255)&quot;&gt;javelin&lt;br&gt;투창&lt;br&gt;&lt;/span&gt;" style="whiteSpace=wrap;html=1;" parent="1" vertex="1">
          <mxGeometry x="320" y="280" width="120" height="60" as="geometry" />
        </mxCell>
        <mxCell id="KRRsPl_IIyR4YD8K1_N0-46" style="edgeStyle=orthogonalEdgeStyle;orthogonalLoop=1;jettySize=auto;html=1;entryX=0;entryY=0.5;entryDx=0;entryDy=0;" parent="1" source="KRRsPl_IIyR4YD8K1_N0-5" target="KRRsPl_IIyR4YD8K1_N0-8" edge="1">
          <mxGeometry relative="1" as="geometry" />
        </mxCell>
        <mxCell id="KRRsPl_IIyR4YD8K1_N0-5" value="&lt;font style=&quot;font-size: 16px&quot;&gt;iryel, a champion of liberty&lt;br&gt;자유의 수호자&lt;br&gt;&lt;/font&gt;" style="whiteSpace=wrap;html=1;" parent="1" vertex="1">
          <mxGeometry x="500" y="270" width="210" height="80" as="geometry" />
        </mxCell>
        <mxCell id="KRRsPl_IIyR4YD8K1_N0-23" style="edgeStyle=orthogonalEdgeStyle;orthogonalLoop=1;jettySize=auto;html=1;entryX=0;entryY=0.5;entryDx=0;entryDy=0;" parent="1" source="KRRsPl_IIyR4YD8K1_N0-8" target="KRRsPl_IIyR4YD8K1_N0-22" edge="1">
          <mxGeometry relative="1" as="geometry" />
        </mxCell>
        <mxCell id="KRRsPl_IIyR4YD8K1_N0-8" value="&lt;span style=&quot;font-family: &amp;#34;noto sans&amp;#34; , &amp;#34;noto sans jp&amp;#34; , &amp;#34;noto sans kr&amp;#34; , &amp;#34;helvetica&amp;#34; , &amp;#34;microsoft yahei&amp;#34; , &amp;#34;apple sd gothic neo&amp;#34; , &amp;#34;malgun gothic&amp;#34; , &amp;#34;맑은 고딕&amp;#34; , &amp;#34;dotum&amp;#34; , , sans-serif ; font-size: 16px ; background-color: rgb(253 , 253 , 253)&quot;&gt;butterfly leap&lt;br&gt;나비 도약&lt;br&gt;&lt;/span&gt;" style="whiteSpace=wrap;html=1;" parent="1" vertex="1">
          <mxGeometry x="760" y="280" width="130" height="60" as="geometry" />
        </mxCell>
        <mxCell id="KRRsPl_IIyR4YD8K1_N0-18" style="edgeStyle=orthogonalEdgeStyle;orthogonalLoop=1;jettySize=auto;html=1;" parent="1" source="KRRsPl_IIyR4YD8K1_N0-12" target="KRRsPl_IIyR4YD8K1_N0-17" edge="1">
          <mxGeometry relative="1" as="geometry" />
        </mxCell>
        <mxCell id="KRRsPl_IIyR4YD8K1_N0-12" value="&lt;span style=&quot;font-size: 16px&quot;&gt;Seria&lt;/span&gt;" style="whiteSpace=wrap;html=1;" parent="1" vertex="1">
          <mxGeometry x="1400" y="280" width="160" height="60" as="geometry" />
        </mxCell>
        <mxCell id="KRRsPl_IIyR4YD8K1_N0-31" style="edgeStyle=orthogonalEdgeStyle;orthogonalLoop=1;jettySize=auto;html=1;entryX=0;entryY=0.5;entryDx=0;entryDy=0;" parent="1" source="KRRsPl_IIyR4YD8K1_N0-17" target="KRRsPl_IIyR4YD8K1_N0-30" edge="1">
          <mxGeometry relative="1" as="geometry">
            <Array as="points">
              <mxPoint x="1840" y="310" />
              <mxPoint x="1840" y="410" />
            </Array>
          </mxGeometry>
        </mxCell>
        <mxCell id="KRRsPl_IIyR4YD8K1_N0-70" style="edgeStyle=orthogonalEdgeStyle;orthogonalLoop=1;jettySize=auto;html=1;entryX=0;entryY=0.5;entryDx=0;entryDy=0;fontSize=16;" parent="1" source="KRRsPl_IIyR4YD8K1_N0-17" target="KRRsPl_IIyR4YD8K1_N0-69" edge="1">
          <mxGeometry relative="1" as="geometry">
            <Array as="points">
              <mxPoint x="1840" y="310" />
              <mxPoint x="1840" y="-30" />
            </Array>
          </mxGeometry>
        </mxCell>
        <mxCell id="KRRsPl_IIyR4YD8K1_N0-17" value="&lt;span style=&quot;font-size: 16px ; background-color: rgb(253 , 253 , 253)&quot;&gt;butterfly&amp;nbsp;&lt;/span&gt;&lt;span style=&quot;font-family: &amp;#34;noto sans&amp;#34; , &amp;#34;noto sans jp&amp;#34; , &amp;#34;noto sans kr&amp;#34; , &amp;#34;helvetica&amp;#34; , &amp;#34;microsoft yahei&amp;#34; , &amp;#34;apple sd gothic neo&amp;#34; , &amp;#34;malgun gothic&amp;#34; , &amp;#34;맑은 고딕&amp;#34; , &amp;#34;dotum&amp;#34; , , sans-serif ; background-color: rgb(253 , 253 , 253)&quot;&gt;&lt;font style=&quot;font-size: 16px&quot;&gt;rake&lt;/font&gt;&lt;/span&gt;" style="whiteSpace=wrap;html=1;" parent="1" vertex="1">
          <mxGeometry x="1620" y="280" width="160" height="60" as="geometry" />
        </mxCell>
        <mxCell id="KRRsPl_IIyR4YD8K1_N0-86" style="edgeStyle=orthogonalEdgeStyle;orthogonalLoop=1;jettySize=auto;html=1;fontSize=16;entryX=0.5;entryY=1;entryDx=0;entryDy=0;" parent="1" source="KRRsPl_IIyR4YD8K1_N0-151" target="KRRsPl_IIyR4YD8K1_N0-167" edge="1">
          <mxGeometry relative="1" as="geometry">
            <mxPoint x="5800" y="310" as="targetPoint" />
          </mxGeometry>
        </mxCell>
        <mxCell id="KRRsPl_IIyR4YD8K1_N0-142" style="edgeStyle=orthogonalEdgeStyle;orthogonalLoop=1;jettySize=auto;html=1;entryX=0;entryY=0.5;entryDx=0;entryDy=0;fontSize=40;fontColor=#000000;" parent="1" source="KRRsPl_IIyR4YD8K1_N0-20" target="KRRsPl_IIyR4YD8K1_N0-141" edge="1">
          <mxGeometry relative="1" as="geometry" />
        </mxCell>
        <mxCell id="KRRsPl_IIyR4YD8K1_N0-20" value="&lt;span style=&quot;font-size: 16px ; background-color: rgb(253 , 253 , 253)&quot;&gt;butterfly&amp;nbsp;&lt;/span&gt;&lt;span style=&quot;font-size: 16px ; background-color: rgb(253 , 253 , 253)&quot;&gt;feather&lt;br&gt;나비 날개&lt;br&gt;&lt;/span&gt;" style="whiteSpace=wrap;html=1;" parent="1" vertex="1">
          <mxGeometry x="3562" y="-60" width="180" height="60" as="geometry" />
        </mxCell>
        <mxCell id="KRRsPl_IIyR4YD8K1_N0-25" style="edgeStyle=orthogonalEdgeStyle;orthogonalLoop=1;jettySize=auto;html=1;" parent="1" source="KRRsPl_IIyR4YD8K1_N0-22" edge="1">
          <mxGeometry relative="1" as="geometry">
            <mxPoint x="1159.9999999999995" y="310" as="targetPoint" />
          </mxGeometry>
        </mxCell>
        <mxCell id="KRRsPl_IIyR4YD8K1_N0-22" value="&lt;font style=&quot;font-size: 16px&quot;&gt;Black cape 1st&lt;br&gt;검은 망토 1차전&lt;br&gt;&lt;/font&gt;" style="whiteSpace=wrap;html=1;" parent="1" vertex="1">
          <mxGeometry x="940" y="280" width="160" height="60" as="geometry" />
        </mxCell>
        <mxCell id="KRRsPl_IIyR4YD8K1_N0-26" style="edgeStyle=orthogonalEdgeStyle;orthogonalLoop=1;jettySize=auto;html=1;entryX=0;entryY=0.5;entryDx=0;entryDy=0;" parent="1" source="KRRsPl_IIyR4YD8K1_N0-24" target="KRRsPl_IIyR4YD8K1_N0-12" edge="1">
          <mxGeometry relative="1" as="geometry" />
        </mxCell>
        <mxCell id="KRRsPl_IIyR4YD8K1_N0-211" style="edgeStyle=orthogonalEdgeStyle;rounded=0;orthogonalLoop=1;jettySize=auto;html=1;entryX=0.5;entryY=0;entryDx=0;entryDy=0;strokeColor=#CC0000;fontSize=16;fontColor=#000000;" parent="1" source="KRRsPl_IIyR4YD8K1_N0-24" target="KRRsPl_IIyR4YD8K1_N0-177" edge="1">
          <mxGeometry relative="1" as="geometry">
            <Array as="points">
              <mxPoint x="1340" y="310" />
              <mxPoint x="1340" y="1580" />
              <mxPoint x="4595" y="1580" />
            </Array>
          </mxGeometry>
        </mxCell>
        <mxCell id="KRRsPl_IIyR4YD8K1_N0-24" value="&lt;span style=&quot;font-size: 16px ; background-color: rgb(253 , 253 , 253)&quot;&gt;&amp;nbsp;Flash&lt;br&gt;점멸&lt;br&gt;&lt;/span&gt;" style="whiteSpace=wrap;html=1;" parent="1" vertex="1">
          <mxGeometry x="1161" y="280" width="160" height="60" as="geometry" />
        </mxCell>
        <mxCell id="KRRsPl_IIyR4YD8K1_N0-162" style="edgeStyle=orthogonalEdgeStyle;rounded=0;orthogonalLoop=1;jettySize=auto;html=1;entryX=0.5;entryY=1;entryDx=0;entryDy=0;fontSize=16;fontColor=#000000;" parent="1" source="KRRsPl_IIyR4YD8K1_N0-35" target="KRRsPl_IIyR4YD8K1_N0-161" edge="1">
          <mxGeometry relative="1" as="geometry" />
        </mxCell>
        <mxCell id="KRRsPl_IIyR4YD8K1_N0-165" style="edgeStyle=orthogonalEdgeStyle;rounded=0;orthogonalLoop=1;jettySize=auto;html=1;entryX=0.5;entryY=1;entryDx=0;entryDy=0;fontSize=16;fontColor=#000000;strokeColor=#CC0000;" parent="1" source="KRRsPl_IIyR4YD8K1_N0-35" target="KRRsPl_IIyR4YD8K1_N0-164" edge="1">
          <mxGeometry relative="1" as="geometry" />
        </mxCell>
        <mxCell id="KRRsPl_IIyR4YD8K1_N0-35" value="&lt;span style=&quot;font-size: 16px&quot;&gt;Acher&lt;/span&gt;" style="whiteSpace=wrap;html=1;" parent="1" vertex="1">
          <mxGeometry x="5850" y="410" width="160" height="60" as="geometry" />
        </mxCell>
        <mxCell id="KRRsPl_IIyR4YD8K1_N0-37" value="&lt;font style=&quot;font-size: 16px&quot;&gt;realty checkpoint&lt;br&gt;리얼리티 체크포인트&lt;br&gt;&lt;/font&gt;" style="whiteSpace=wrap;html=1;" parent="1" vertex="1">
          <mxGeometry x="1161" y="350" width="159" height="60" as="geometry" />
        </mxCell>
        <mxCell id="KRRsPl_IIyR4YD8K1_N0-40" style="edgeStyle=orthogonalEdgeStyle;orthogonalLoop=1;jettySize=auto;html=1;entryX=0;entryY=0.5;entryDx=0;entryDy=0;" parent="1" source="KRRsPl_IIyR4YD8K1_N0-38" target="KRRsPl_IIyR4YD8K1_N0-39" edge="1">
          <mxGeometry relative="1" as="geometry" />
        </mxCell>
        <mxCell id="KRRsPl_IIyR4YD8K1_N0-49" style="edgeStyle=orthogonalEdgeStyle;orthogonalLoop=1;jettySize=auto;html=1;entryX=0;entryY=0.5;entryDx=0;entryDy=0;" parent="1" source="KRRsPl_IIyR4YD8K1_N0-38" target="KRRsPl_IIyR4YD8K1_N0-45" edge="1">
          <mxGeometry relative="1" as="geometry" />
        </mxCell>
        <mxCell id="KRRsPl_IIyR4YD8K1_N0-38" value="&lt;font style=&quot;font-size: 16px&quot;&gt;Medical Center&lt;br&gt;의료부서 해금&lt;br&gt;&lt;/font&gt;" style="whiteSpace=wrap;html=1;fillColor=#d5e8d4;strokeColor=#82b366;" parent="1" vertex="1">
          <mxGeometry x="1161" y="420" width="159" height="60" as="geometry" />
        </mxCell>
        <mxCell id="KRRsPl_IIyR4YD8K1_N0-43" style="edgeStyle=orthogonalEdgeStyle;orthogonalLoop=1;jettySize=auto;html=1;entryX=0;entryY=0.5;entryDx=0;entryDy=0;" parent="1" source="KRRsPl_IIyR4YD8K1_N0-39" target="KRRsPl_IIyR4YD8K1_N0-42" edge="1">
          <mxGeometry relative="1" as="geometry" />
        </mxCell>
        <mxCell id="KRRsPl_IIyR4YD8K1_N0-39" value="&lt;span style=&quot;font-family: &amp;#34;noto sans&amp;#34; , &amp;#34;noto sans jp&amp;#34; , &amp;#34;noto sans kr&amp;#34; , &amp;#34;helvetica&amp;#34; , &amp;#34;microsoft yahei&amp;#34; , &amp;#34;apple sd gothic neo&amp;#34; , &amp;#34;malgun gothic&amp;#34; , &amp;#34;맑은 고딕&amp;#34; , &amp;#34;dotum&amp;#34; , , sans-serif ; background-color: rgb(253 , 253 , 253)&quot;&gt;&lt;font style=&quot;font-size: 16px&quot;&gt;a nightmare, wailing with pain&lt;/font&gt;&lt;/span&gt;" style="whiteSpace=wrap;html=1;" parent="1" vertex="1">
          <mxGeometry x="1495" y="1169" width="250" height="60" as="geometry" />
        </mxCell>
        <mxCell id="KRRsPl_IIyR4YD8K1_N0-53" style="edgeStyle=orthogonalEdgeStyle;orthogonalLoop=1;jettySize=auto;html=1;entryX=0;entryY=0.5;entryDx=0;entryDy=0;fontSize=16;" parent="1" source="KRRsPl_IIyR4YD8K1_N0-42" target="KRRsPl_IIyR4YD8K1_N0-52" edge="1">
          <mxGeometry relative="1" as="geometry" />
        </mxCell>
        <mxCell id="KRRsPl_IIyR4YD8K1_N0-62" style="edgeStyle=orthogonalEdgeStyle;orthogonalLoop=1;jettySize=auto;html=1;entryX=0;entryY=0.5;entryDx=0;entryDy=0;fontSize=16;" parent="1" source="KRRsPl_IIyR4YD8K1_N0-42" target="KRRsPl_IIyR4YD8K1_N0-61" edge="1">
          <mxGeometry relative="1" as="geometry">
            <mxPoint x="2290" y="1109" as="targetPoint" />
            <Array as="points">
              <mxPoint x="2180" y="1199" />
              <mxPoint x="2180" y="1109" />
            </Array>
          </mxGeometry>
        </mxCell>
        <mxCell id="KRRsPl_IIyR4YD8K1_N0-42" value="&lt;span style=&quot;font-size: 16px ; background-color: rgb(253 , 253 , 253)&quot;&gt;rush&lt;/span&gt;" style="whiteSpace=wrap;html=1;" parent="1" vertex="1">
          <mxGeometry x="1795" y="1169" width="130" height="60" as="geometry" />
        </mxCell>
        <mxCell id="KRRsPl_IIyR4YD8K1_N0-54" style="edgeStyle=orthogonalEdgeStyle;orthogonalLoop=1;jettySize=auto;html=1;entryX=0;entryY=0.5;entryDx=0;entryDy=0;fontSize=16;" parent="1" source="KRRsPl_IIyR4YD8K1_N0-45" target="KRRsPl_IIyR4YD8K1_N0-52" edge="1">
          <mxGeometry relative="1" as="geometry" />
        </mxCell>
        <mxCell id="KRRsPl_IIyR4YD8K1_N0-45" value="&lt;font style=&quot;font-size: 16px&quot;&gt;Quest: secret intormation of safety team&lt;br&gt;퀘스트: 안전팀의 기밀정보 뺴오기&lt;br&gt;&lt;/font&gt;" style="shape=hexagon;perimeter=hexagonPerimeter2;whiteSpace=wrap;html=1;fixedSize=1;fillColor=#d5e8d4;strokeColor=#82b366;" parent="1" vertex="1">
          <mxGeometry x="1420" y="1289" width="350" height="80" as="geometry" />
        </mxCell>
        <mxCell id="KRRsPl_IIyR4YD8K1_N0-50" value="의료팀이 정보부서로 가는 문을 열어주었다,&lt;br&gt;자신들이 안전하게 일하고 있는 것이 맞는지 안전팀의 기밀정보를 얻어와달라고 의뢰했다.&lt;br&gt;들키지 않고 정보를 가져다준다면 정보팀으로 가는 권한을 만들어주겠다 약속했다." style="text;html=1;strokeColor=none;fillColor=none;align=left;verticalAlign=middle;whiteSpace=wrap;fontSize=16;" parent="1" vertex="1">
          <mxGeometry x="1436" y="1339" width="660" height="140" as="geometry" />
        </mxCell>
        <mxCell id="KRRsPl_IIyR4YD8K1_N0-52" value="imformation Center&lt;br&gt;정보부서 해금" style="whiteSpace=wrap;html=1;fontSize=16;align=center;fillColor=#fff2cc;strokeColor=#d6b656;" parent="1" vertex="1">
          <mxGeometry x="1986" y="1229" width="241.65" height="81" as="geometry" />
        </mxCell>
        <mxCell id="KRRsPl_IIyR4YD8K1_N0-56" value="리얼리티 체크포인트의 영향으로 의료팀의 악몽들이 탈출했고, 진압되지 않은 상황이 되었다.&lt;br&gt;의료부서가 박살이 난 덕분에, 정보부서로 가는 길이 열렸지만, 악몽이 막고있다.&lt;br&gt;" style="text;html=1;strokeColor=none;fillColor=none;align=left;verticalAlign=middle;whiteSpace=wrap;fontSize=16;" parent="1" vertex="1">
          <mxGeometry x="1490" y="1059" width="660" height="140" as="geometry" />
        </mxCell>
        <mxCell id="KRRsPl_IIyR4YD8K1_N0-58" value="자신이 에클레어의 꿈을 호위하는 자라고 자칭하는 검은 망토가 나타났다.&lt;br&gt;전투 중에 갑자기 이상한 질문을 던지더니, &lt;br&gt;리얼리티 체크포인트라는 기술을 알려주곤 사라져버렸다,&lt;br&gt;지휘부서에서 의료부서로 가는 길의 문이 원래 없던 상황이 되어있었다." style="text;html=1;strokeColor=none;fillColor=none;align=left;verticalAlign=middle;whiteSpace=wrap;fontSize=16;" parent="1" vertex="1">
          <mxGeometry x="930" y="140" width="660" height="140" as="geometry" />
        </mxCell>
        <mxCell id="KRRsPl_IIyR4YD8K1_N0-65" style="edgeStyle=orthogonalEdgeStyle;orthogonalLoop=1;jettySize=auto;html=1;entryX=0;entryY=0.5;entryDx=0;entryDy=0;fontSize=16;" parent="1" source="KRRsPl_IIyR4YD8K1_N0-61" target="KRRsPl_IIyR4YD8K1_N0-64" edge="1">
          <mxGeometry relative="1" as="geometry" />
        </mxCell>
        <mxCell id="KRRsPl_IIyR4YD8K1_N0-61" value="&lt;font&gt;&lt;span style=&quot;font-size: 16px&quot;&gt;Quest:&amp;nbsp;&lt;/span&gt;&lt;span style=&quot;&quot;&gt;&lt;font style=&quot;font-size: 16px&quot;&gt;examination for joining&amp;nbsp;&lt;/font&gt;&lt;/span&gt;&lt;span style=&quot;font-size: 16px&quot;&gt;safety team&lt;/span&gt;&lt;br&gt;&lt;span style=&quot;font-size: 16px&quot;&gt;퀘스트: 안전팀 입단심사&lt;/span&gt;&lt;br&gt;&lt;/font&gt;" style="shape=hexagon;perimeter=hexagonPerimeter2;whiteSpace=wrap;html=1;fixedSize=1;fillColor=#b0e3e6;strokeColor=#0e8088;labelBackgroundColor=none;" parent="1" vertex="1">
          <mxGeometry x="2310" y="1069" width="400" height="80" as="geometry" />
        </mxCell>
        <mxCell id="KRRsPl_IIyR4YD8K1_N0-73" style="edgeStyle=orthogonalEdgeStyle;orthogonalLoop=1;jettySize=auto;html=1;entryX=0;entryY=0.5;entryDx=0;entryDy=0;fontSize=16;" parent="1" source="KRRsPl_IIyR4YD8K1_N0-69" target="KRRsPl_IIyR4YD8K1_N0-72" edge="1">
          <mxGeometry relative="1" as="geometry" />
        </mxCell>
        <mxCell id="KRRsPl_IIyR4YD8K1_N0-69" value="&lt;div&gt;&lt;span&gt;Education Center&lt;/span&gt;&lt;/div&gt;&lt;div&gt;&lt;span&gt;교육부서 해금&lt;/span&gt;&lt;/div&gt;" style="whiteSpace=wrap;html=1;fontSize=16;align=center;fillColor=#e1d5e7;strokeColor=#9673a6;" parent="1" vertex="1">
          <mxGeometry x="1880" y="-60" width="180" height="60" as="geometry" />
        </mxCell>
        <mxCell id="KRRsPl_IIyR4YD8K1_N0-77" style="edgeStyle=orthogonalEdgeStyle;orthogonalLoop=1;jettySize=auto;html=1;entryX=0;entryY=0.5;entryDx=0;entryDy=0;fontSize=16;" parent="1" source="KRRsPl_IIyR4YD8K1_N0-72" target="KRRsPl_IIyR4YD8K1_N0-75" edge="1">
          <mxGeometry relative="1" as="geometry" />
        </mxCell>
        <mxCell id="KRRsPl_IIyR4YD8K1_N0-72" value="&lt;font&gt;&lt;span style=&quot;font-size: 16px&quot;&gt;Event:&amp;nbsp;&lt;/span&gt;&lt;span style=&quot;&quot;&gt;&lt;font style=&quot;font-size: 16px&quot;&gt;suppression of assassination&lt;br&gt;&lt;/font&gt;&lt;/span&gt;&lt;font style=&quot;font-size: 16px&quot;&gt;이벤트: 암살 저지&lt;/font&gt;&lt;br&gt;&lt;/font&gt;" style="shape=hexagon;perimeter=hexagonPerimeter2;whiteSpace=wrap;html=1;fixedSize=1;fillColor=#e1d5e7;strokeColor=#9673a6;labelBackgroundColor=none;" parent="1" vertex="1">
          <mxGeometry x="2150" y="-70" width="400" height="80" as="geometry" />
        </mxCell>
        <mxCell id="KRRsPl_IIyR4YD8K1_N0-79" value="" style="edgeStyle=orthogonalEdgeStyle;orthogonalLoop=1;jettySize=auto;html=1;fontSize=16;" parent="1" source="KRRsPl_IIyR4YD8K1_N0-75" target="KRRsPl_IIyR4YD8K1_N0-76" edge="1">
          <mxGeometry relative="1" as="geometry" />
        </mxCell>
        <mxCell id="KRRsPl_IIyR4YD8K1_N0-75" value="imformation Center&lt;br&gt;정보부서 해금" style="whiteSpace=wrap;html=1;fontSize=16;align=center;fillColor=#fff2cc;strokeColor=#d6b656;" parent="1" vertex="1">
          <mxGeometry x="2630" y="-60" width="179" height="60" as="geometry" />
        </mxCell>
        <mxCell id="KRRsPl_IIyR4YD8K1_N0-82" style="edgeStyle=orthogonalEdgeStyle;orthogonalLoop=1;jettySize=auto;html=1;fontSize=16;" parent="1" source="KRRsPl_IIyR4YD8K1_N0-76" target="KRRsPl_IIyR4YD8K1_N0-81" edge="1">
          <mxGeometry relative="1" as="geometry" />
        </mxCell>
        <mxCell id="KRRsPl_IIyR4YD8K1_N0-76" value="&lt;span style=&quot;&quot;&gt;&lt;font style=&quot;font-size: 16px&quot;&gt;Disciplinary&lt;/font&gt;&lt;/span&gt;&amp;nbsp;Center&lt;br&gt;징계부서 해금" style="whiteSpace=wrap;html=1;fontSize=16;align=center;fillColor=#f8cecc;strokeColor=#b85450;labelBackgroundColor=none;" parent="1" vertex="1">
          <mxGeometry x="2850" y="-60" width="179" height="60" as="geometry" />
        </mxCell>
        <mxCell id="KRRsPl_IIyR4YD8K1_N0-85" style="edgeStyle=orthogonalEdgeStyle;orthogonalLoop=1;jettySize=auto;html=1;entryX=0;entryY=0.5;entryDx=0;entryDy=0;fontSize=16;" parent="1" source="KRRsPl_IIyR4YD8K1_N0-81" target="KRRsPl_IIyR4YD8K1_N0-20" edge="1">
          <mxGeometry relative="1" as="geometry" />
        </mxCell>
        <mxCell id="KRRsPl_IIyR4YD8K1_N0-81" value="&lt;font&gt;&lt;font style=&quot;font-size: 16px&quot;&gt;&lt;span style=&quot;&quot;&gt;Quest: invesrigation&amp;nbsp;&lt;/span&gt;&lt;span style=&quot;&quot;&gt;of assassination&lt;/span&gt;&lt;br&gt;&lt;/font&gt;&lt;font style=&quot;font-size: 16px&quot;&gt;퀘스트: 암살사건 수사&lt;/font&gt;&lt;br&gt;&lt;/font&gt;" style="shape=hexagon;perimeter=hexagonPerimeter2;whiteSpace=wrap;html=1;fixedSize=1;fillColor=#f8cecc;strokeColor=#b85450;labelBackgroundColor=none;" parent="1" vertex="1">
          <mxGeometry x="3090" y="-70" width="400" height="80" as="geometry" />
        </mxCell>
        <mxCell id="KRRsPl_IIyR4YD8K1_N0-84" value="또다른 나의 암살사건을 수사할 권한을 얻게 되었다.&lt;br&gt;연구소 모든 곳의 출입권한을 얻었다." style="text;html=1;strokeColor=none;fillColor=none;align=left;verticalAlign=middle;whiteSpace=wrap;fontSize=16;labelBackgroundColor=none;" parent="1" vertex="1">
          <mxGeometry x="3100" y="-170" width="660" height="140" as="geometry" />
        </mxCell>
        <mxCell id="KRRsPl_IIyR4YD8K1_N0-102" style="edgeStyle=orthogonalEdgeStyle;orthogonalLoop=1;jettySize=auto;html=1;fontSize=16;fontColor=#000000;" parent="1" edge="1">
          <mxGeometry relative="1" as="geometry">
            <mxPoint x="3100" y="4780" as="sourcePoint" />
            <mxPoint x="3100" y="4800" as="targetPoint" />
          </mxGeometry>
        </mxCell>
        <mxCell id="KRRsPl_IIyR4YD8K1_N0-145" style="edgeStyle=orthogonalEdgeStyle;orthogonalLoop=1;jettySize=auto;html=1;entryX=0;entryY=0.5;entryDx=0;entryDy=0;fontSize=40;fontColor=#000000;" parent="1" source="KRRsPl_IIyR4YD8K1_N0-138" target="KRRsPl_IIyR4YD8K1_N0-143" edge="1">
          <mxGeometry relative="1" as="geometry" />
        </mxCell>
        <mxCell id="KRRsPl_IIyR4YD8K1_N0-138" value="Walfare Center&lt;br&gt;복지부서 해금" style="whiteSpace=wrap;html=1;fontSize=16;align=center;fillColor=#b0e3e6;strokeColor=#0e8088;" parent="1" vertex="1">
          <mxGeometry x="3880" y="-70" width="240" height="80" as="geometry" />
        </mxCell>
        <mxCell id="KRRsPl_IIyR4YD8K1_N0-139" style="edgeStyle=orthogonalEdgeStyle;orthogonalLoop=1;jettySize=auto;html=1;fontSize=16;" parent="1" source="KRRsPl_IIyR4YD8K1_N0-20" target="KRRsPl_IIyR4YD8K1_N0-138" edge="1">
          <mxGeometry relative="1" as="geometry">
            <mxPoint x="5820" y="110" as="targetPoint" />
            <mxPoint x="3780" y="-30" as="sourcePoint" />
          </mxGeometry>
        </mxCell>
        <mxCell id="KRRsPl_IIyR4YD8K1_N0-147" style="edgeStyle=orthogonalEdgeStyle;orthogonalLoop=1;jettySize=auto;html=1;entryX=0;entryY=0.5;entryDx=0;entryDy=0;fontSize=40;fontColor=#000000;" parent="1" source="KRRsPl_IIyR4YD8K1_N0-141" target="KRRsPl_IIyR4YD8K1_N0-146" edge="1">
          <mxGeometry relative="1" as="geometry" />
        </mxCell>
        <mxCell id="KRRsPl_IIyR4YD8K1_N0-141" value="&lt;div&gt;&lt;span&gt;Education Center&lt;/span&gt;&lt;/div&gt;&lt;div&gt;&lt;span&gt;교육부서 해금&lt;/span&gt;&lt;/div&gt;" style="whiteSpace=wrap;html=1;fontSize=16;align=center;fillColor=#e1d5e7;strokeColor=#9673a6;" parent="1" vertex="1">
          <mxGeometry x="3880" y="-160" width="240" height="80" as="geometry" />
        </mxCell>
        <mxCell id="KRRsPl_IIyR4YD8K1_N0-153" style="edgeStyle=orthogonalEdgeStyle;orthogonalLoop=1;jettySize=auto;html=1;entryX=0;entryY=0.5;entryDx=0;entryDy=0;fontSize=40;fontColor=#000000;" parent="1" source="KRRsPl_IIyR4YD8K1_N0-143" target="KRRsPl_IIyR4YD8K1_N0-151" edge="1">
          <mxGeometry relative="1" as="geometry" />
        </mxCell>
        <mxCell id="KRRsPl_IIyR4YD8K1_N0-143" value="&lt;font&gt;&lt;font style=&quot;font-size: 16px&quot;&gt;&lt;span&gt;Quest: a frantic crowd&lt;/span&gt;&lt;br&gt;&lt;/font&gt;&lt;font style=&quot;font-size: 16px&quot;&gt;퀘스트: 미쳐버린 사람들&lt;/font&gt;&lt;br&gt;&lt;/font&gt;" style="shape=hexagon;perimeter=hexagonPerimeter2;whiteSpace=wrap;html=1;fixedSize=1;fillColor=#b0e3e6;strokeColor=#0e8088;labelBackgroundColor=none;" parent="1" vertex="1">
          <mxGeometry x="4190" y="-70" width="400" height="80" as="geometry" />
        </mxCell>
        <mxCell id="KRRsPl_IIyR4YD8K1_N0-148" style="edgeStyle=orthogonalEdgeStyle;orthogonalLoop=1;jettySize=auto;html=1;fontSize=40;fontColor=#000000;" parent="1" source="KRRsPl_IIyR4YD8K1_N0-146" edge="1">
          <mxGeometry relative="1" as="geometry">
            <mxPoint x="5240" y="-30" as="targetPoint" />
          </mxGeometry>
        </mxCell>
        <mxCell id="KRRsPl_IIyR4YD8K1_N0-146" value="&lt;font&gt;&lt;font style=&quot;font-size: 16px&quot;&gt;&lt;span&gt;Quest: It&#39;s just a part.&lt;/span&gt;&lt;br&gt;&lt;/font&gt;&lt;font style=&quot;font-size: 16px&quot;&gt;퀘스트: 그저 부품일뿐.&lt;/font&gt;&lt;br&gt;&lt;/font&gt;" style="shape=hexagon;perimeter=hexagonPerimeter2;whiteSpace=wrap;html=1;fixedSize=1;fillColor=#e1d5e7;strokeColor=#9673a6;labelBackgroundColor=none;" parent="1" vertex="1">
          <mxGeometry x="4190" y="-160" width="400" height="80" as="geometry" />
        </mxCell>
        <mxCell id="KRRsPl_IIyR4YD8K1_N0-151" value="&lt;span style=&quot;font-size: 16px&quot;&gt;투기장&lt;/span&gt;" style="whiteSpace=wrap;html=1;" parent="1" vertex="1">
          <mxGeometry x="4650" y="-60" width="160" height="60" as="geometry" />
        </mxCell>
        <mxCell id="KRRsPl_IIyR4YD8K1_N0-155" value="교화루트&lt;br&gt;&lt;br&gt;갈망의 기사: 불안정사태를 100%로 만들기&lt;br&gt;자유의 수호자: 불안정상태를 100%로 만들기&lt;br&gt;세리아: 불안정상태 100%일때 가까이에서 체크포인트 생성&lt;br&gt;또 다른 세리아가 현실에 생겨나면 꿈의 세계의 오웬은 없어집니다." style="text;html=1;strokeColor=none;fillColor=none;align=left;verticalAlign=middle;whiteSpace=wrap;fontSize=16;" parent="1" vertex="1">
          <mxGeometry x="1850" y="-240" width="660" height="190" as="geometry" />
        </mxCell>
        <mxCell id="KRRsPl_IIyR4YD8K1_N0-157" value="" style="whiteSpace=wrap;html=1;labelBackgroundColor=none;fillColor=none;fontSize=40;dashed=1;" parent="1" vertex="1">
          <mxGeometry x="4150" y="-190" width="1470" height="250" as="geometry" />
        </mxCell>
        <mxCell id="KRRsPl_IIyR4YD8K1_N0-159" value="" style="group;labelBackgroundColor=none;" parent="1" vertex="1" connectable="0">
          <mxGeometry x="2830" y="1069" width="660" height="190" as="geometry" />
        </mxCell>
        <mxCell id="KRRsPl_IIyR4YD8K1_N0-64" value="&#xa;&#xa;&lt;span style=&quot;color: rgb(0, 0, 0); font-family: helvetica; font-size: 16px; font-style: normal; font-weight: 400; letter-spacing: normal; text-align: center; text-indent: 0px; text-transform: none; word-spacing: 0px; display: inline; float: none;&quot;&gt;Safety Center&lt;/span&gt;&lt;br style=&quot;color: rgb(0, 0, 0); font-family: helvetica; font-size: 16px; font-style: normal; font-weight: 400; letter-spacing: normal; text-align: center; text-indent: 0px; text-transform: none; word-spacing: 0px;&quot;&gt;&lt;span style=&quot;color: rgb(0, 0, 0); font-family: helvetica; font-size: 16px; font-style: normal; font-weight: 400; letter-spacing: normal; text-align: center; text-indent: 0px; text-transform: none; word-spacing: 0px; display: inline; float: none;&quot;&gt;안전부서 해금&lt;/span&gt;&#xa;&#xa;" style="whiteSpace=wrap;html=1;fontSize=16;align=center;fillColor=#b0e3e6;strokeColor=#0e8088;labelBackgroundColor=none;" parent="KRRsPl_IIyR4YD8K1_N0-159" vertex="1">
          <mxGeometry x="10" width="240" height="80" as="geometry" />
        </mxCell>
        <mxCell id="KRRsPl_IIyR4YD8K1_N0-67" value="안전부서에 출입이 가능해졌습니다. 그야 물론 제가 안전팀이니깐요.&lt;br&gt;다른 팀에 악몽이 탈출한다면 처치하는 퀘스트를 받을 수 있게 되었습니다.&lt;br&gt;악몽이 나타난 부서로 가는 모든 통로의 출입권한을 얻는 건 덤이라고 할 수 있겠네요." style="text;html=1;strokeColor=none;fillColor=none;align=left;verticalAlign=middle;whiteSpace=wrap;fontSize=16;" parent="KRRsPl_IIyR4YD8K1_N0-159" vertex="1">
          <mxGeometry x="-130" y="50" width="660" height="140" as="geometry" />
        </mxCell>
        <mxCell id="KRRsPl_IIyR4YD8K1_N0-161" value="Nomal Ending" style="rounded=0;whiteSpace=wrap;html=1;labelBackgroundColor=none;fontSize=16;direction=south;fillColor=#f8cecc;strokeColor=#b85450;" parent="1" vertex="1">
          <mxGeometry x="6080" y="410" width="180" height="60" as="geometry" />
        </mxCell>
        <mxCell id="KRRsPl_IIyR4YD8K1_N0-163" value="Fourth wall Ending" style="rounded=0;whiteSpace=wrap;html=1;labelBackgroundColor=none;fontSize=16;direction=south;" parent="1" vertex="1">
          <mxGeometry x="6310" y="500" width="180" height="60" as="geometry" />
        </mxCell>
        <mxCell id="KRRsPl_IIyR4YD8K1_N0-166" style="edgeStyle=orthogonalEdgeStyle;rounded=0;orthogonalLoop=1;jettySize=auto;html=1;entryX=0.5;entryY=1;entryDx=0;entryDy=0;fontSize=16;fontColor=#000000;strokeColor=#CC0000;" parent="1" source="KRRsPl_IIyR4YD8K1_N0-164" target="KRRsPl_IIyR4YD8K1_N0-163" edge="1">
          <mxGeometry relative="1" as="geometry" />
        </mxCell>
        <mxCell id="KRRsPl_IIyR4YD8K1_N0-164" value="Eclair" style="rounded=0;whiteSpace=wrap;html=1;labelBackgroundColor=none;fontSize=16;direction=south;" parent="1" vertex="1">
          <mxGeometry x="6080" y="500" width="180" height="60" as="geometry" />
        </mxCell>
        <mxCell id="KRRsPl_IIyR4YD8K1_N0-167" value="True Ending" style="rounded=0;whiteSpace=wrap;html=1;labelBackgroundColor=none;fontSize=16;direction=south;fillColor=#d5e8d4;strokeColor=#82b366;" parent="1" vertex="1">
          <mxGeometry x="6090" y="-60" width="180" height="60" as="geometry" />
        </mxCell>
        <mxCell id="KRRsPl_IIyR4YD8K1_N0-170" value="" style="group" parent="1" vertex="1" connectable="0">
          <mxGeometry x="2030" y="360" width="440" height="110" as="geometry" />
        </mxCell>
        <mxCell id="KRRsPl_IIyR4YD8K1_N0-87" value="" style="whiteSpace=wrap;html=1;labelBackgroundColor=none;fontSize=16;align=center;fillColor=#f8cecc;strokeColor=#b85450;" parent="KRRsPl_IIyR4YD8K1_N0-170" vertex="1">
          <mxGeometry width="440" height="110" as="geometry" />
        </mxCell>
        <mxCell id="KRRsPl_IIyR4YD8K1_N0-30" value="&lt;span style=&quot;font-size: 16px&quot;&gt;Owen&lt;/span&gt;" style="whiteSpace=wrap;html=1;" parent="KRRsPl_IIyR4YD8K1_N0-170" vertex="1">
          <mxGeometry x="20" y="20" width="160" height="60" as="geometry" />
        </mxCell>
        <mxCell id="KRRsPl_IIyR4YD8K1_N0-32" value="&lt;span style=&quot;font-size: 16px ; background-color: rgb(253 , 253 , 253)&quot;&gt;ground blow&lt;/span&gt;" style="whiteSpace=wrap;html=1;" parent="KRRsPl_IIyR4YD8K1_N0-170" vertex="1">
          <mxGeometry x="240" y="20" width="160" height="60" as="geometry" />
        </mxCell>
        <mxCell id="KRRsPl_IIyR4YD8K1_N0-33" style="edgeStyle=orthogonalEdgeStyle;orthogonalLoop=1;jettySize=auto;html=1;entryX=0;entryY=0.5;entryDx=0;entryDy=0;" parent="KRRsPl_IIyR4YD8K1_N0-170" source="KRRsPl_IIyR4YD8K1_N0-30" target="KRRsPl_IIyR4YD8K1_N0-32" edge="1">
          <mxGeometry relative="1" as="geometry" />
        </mxCell>
        <mxCell id="KRRsPl_IIyR4YD8K1_N0-177" value="&lt;font style=&quot;font-size: 16px&quot;&gt;undergrounnd corridor hidden shortcut&lt;br&gt;지하복도 숨겨진 지름길&lt;br&gt;&lt;/font&gt;" style="whiteSpace=wrap;html=1;" parent="1" vertex="1">
          <mxGeometry x="4250" y="1690" width="690" height="100" as="geometry" />
        </mxCell>
        <mxCell id="KRRsPl_IIyR4YD8K1_N0-181" style="edgeStyle=orthogonalEdgeStyle;rounded=0;orthogonalLoop=1;jettySize=auto;html=1;entryX=0.5;entryY=1;entryDx=0;entryDy=0;strokeColor=#CC0000;fontSize=16;fontColor=#000000;" parent="1" source="KRRsPl_IIyR4YD8K1_N0-87" target="KRRsPl_IIyR4YD8K1_N0-27" edge="1">
          <mxGeometry relative="1" as="geometry">
            <Array as="points">
              <mxPoint x="1600" y="450" />
            </Array>
          </mxGeometry>
        </mxCell>
        <mxCell id="KRRsPl_IIyR4YD8K1_N0-182" value="처치, 교화 상관없이 몰살&lt;br&gt;에클레어와의 대화에서 연속된 잘못된&amp;nbsp; 선택지" style="text;html=1;strokeColor=none;fillColor=none;align=center;verticalAlign=middle;whiteSpace=wrap;rounded=0;labelBackgroundColor=none;fontSize=16;" parent="1" vertex="1">
          <mxGeometry x="6001" y="556" width="350" height="70" as="geometry" />
        </mxCell>
        <mxCell id="KRRsPl_IIyR4YD8K1_N0-184" value="" style="group" parent="1" vertex="1" connectable="0">
          <mxGeometry x="330.76" y="2640" width="1475.03" height="1306.63" as="geometry" />
        </mxCell>
        <mxCell id="KRRsPl_IIyR4YD8K1_N0-133" value="" style="whiteSpace=wrap;html=1;strokeColor=#82b366;fillColor=#d5e8d4;fontSize=40;" parent="KRRsPl_IIyR4YD8K1_N0-184" vertex="1">
          <mxGeometry width="1420" height="471.64" as="geometry" />
        </mxCell>
        <mxCell id="KRRsPl_IIyR4YD8K1_N0-129" value="" style="group;aspect=fixed;" parent="KRRsPl_IIyR4YD8K1_N0-184" vertex="1" connectable="0">
          <mxGeometry x="14.453620422898402" y="282.2259334082427" width="1460.5755090335133" height="1024.403540484271" as="geometry" />
        </mxCell>
        <mxCell id="KRRsPl_IIyR4YD8K1_N0-132" value="" style="verticalLabelPosition=bottom;verticalAlign=top;html=1;shape=mxgraph.basic.rect;fillColor2=none;strokeWidth=1;size=20;indent=5;fillColor=#ffcccc;fontSize=40;strokeColor=#36393d;" parent="KRRsPl_IIyR4YD8K1_N0-129" vertex="1">
          <mxGeometry x="-15.214328219099096" y="418.3940260252252" width="1437.7540167048646" height="540.1086517780179" as="geometry" />
        </mxCell>
        <mxCell id="KRRsPl_IIyR4YD8K1_N0-96" value="징계부서" style="whiteSpace=wrap;html=1;labelBackgroundColor=none;fontSize=40;align=center;fillColor=#f8cecc;strokeColor=#b85450;aspect=fixed;" parent="KRRsPl_IIyR4YD8K1_N0-129" vertex="1">
          <mxGeometry x="1039.3440107954261" y="345.77193862918915" width="352.9876290113181" height="148.05062790005329" as="geometry" />
        </mxCell>
        <mxCell id="KRRsPl_IIyR4YD8K1_N0-94" value="정보부서" style="whiteSpace=wrap;html=1;labelBackgroundColor=none;fontSize=40;align=center;fillColor=#fff2cc;strokeColor=#d6b656;" parent="KRRsPl_IIyR4YD8K1_N0-129" vertex="1">
          <mxGeometry y="140.90228699273405" width="322.66173701689866" height="146.54214498569004" as="geometry" />
        </mxCell>
        <mxCell id="KRRsPl_IIyR4YD8K1_N0-95" value="교육부서" style="whiteSpace=wrap;html=1;labelBackgroundColor=none;fontSize=40;align=center;fillColor=#e1d5e7;strokeColor=#9673a6;aspect=fixed;" parent="KRRsPl_IIyR4YD8K1_N0-129" vertex="1">
          <mxGeometry x="243.42925150558554" y="-22.517205764266663" width="659.198805913016" height="150.66749235373834" as="geometry" />
        </mxCell>
        <mxCell id="KRRsPl_IIyR4YD8K1_N0-97" value="" style="whiteSpace=wrap;html=1;labelBackgroundColor=none;fontSize=40;fontColor=#333333;align=center;fillColor=#f5f5f5;strokeColor=#666666;" parent="KRRsPl_IIyR4YD8K1_N0-129" vertex="1">
          <mxGeometry x="341.96018576115887" y="138.76627750682545" width="74.33917081764325" height="297.3563089431974" as="geometry" />
        </mxCell>
        <mxCell id="KRRsPl_IIyR4YD8K1_N0-99" value="" style="whiteSpace=wrap;html=1;labelBackgroundColor=none;fontSize=40;fontColor=#333333;align=center;fillColor=#f5f5f5;strokeColor=#666666;" parent="KRRsPl_IIyR4YD8K1_N0-129" vertex="1">
          <mxGeometry x="725.5332769482882" y="233.593188311938" width="210.14790852630628" height="55.479047850944866" as="geometry" />
        </mxCell>
        <mxCell id="KRRsPl_IIyR4YD8K1_N0-100" value="연구부서" style="whiteSpace=wrap;html=1;labelBackgroundColor=none;fontSize=40;align=center;fillColor=#dae8fc;strokeColor=#6c8ebf;" parent="KRRsPl_IIyR4YD8K1_N0-129" vertex="1">
          <mxGeometry x="346.91613048233506" y="450.99040189718266" width="670.0437263030243" height="244.218736535048" as="geometry" />
        </mxCell>
        <mxCell id="KRRsPl_IIyR4YD8K1_N0-93" value="중앙본부" style="whiteSpace=wrap;html=1;labelBackgroundColor=none;fontSize=40;align=center;fillColor=#ffe6cc;strokeColor=#d79b00;aspect=fixed;" parent="KRRsPl_IIyR4YD8K1_N0-129" vertex="1">
          <mxGeometry x="743.3917081764324" y="149.7040337374527" width="163.93748905886707" height="72.86220756804813" as="geometry" />
        </mxCell>
        <mxCell id="KRRsPl_IIyR4YD8K1_N0-103" value="" style="whiteSpace=wrap;html=1;labelBackgroundColor=none;fontSize=40;fontColor=#333333;align=center;fillColor=#f5f5f5;strokeColor=#666666;aspect=fixed;" parent="KRRsPl_IIyR4YD8K1_N0-129" vertex="1">
          <mxGeometry x="947.4687811146492" y="174.0506624914728" width="72.77388508001383" height="264.6323093818684" as="geometry" />
        </mxCell>
        <mxCell id="KRRsPl_IIyR4YD8K1_N0-117" value="폐쇄동" style="whiteSpace=wrap;html=1;labelBackgroundColor=none;fontSize=40;fontColor=#333333;align=center;fillColor=#f5f5f5;strokeColor=#666666;aspect=fixed;" parent="KRRsPl_IIyR4YD8K1_N0-129" vertex="1">
          <mxGeometry x="112.99058369809654" y="702.7520768024232" width="1137.8933874329332" height="232.92910867217122" as="geometry" />
        </mxCell>
        <mxCell id="KRRsPl_IIyR4YD8K1_N0-120" value="의료부서" style="whiteSpace=wrap;html=1;labelBackgroundColor=none;fontSize=40;align=center;fillColor=#d5e8d4;strokeColor=#82b366;" parent="KRRsPl_IIyR4YD8K1_N0-129" vertex="1">
          <mxGeometry x="426.2141907298421" y="136.92895397189187" width="287.4443030434393" height="182.08508012617798" as="geometry" />
        </mxCell>
        <mxCell id="KRRsPl_IIyR4YD8K1_N0-122" value="안전부서" style="whiteSpace=wrap;html=1;labelBackgroundColor=none;fontSize=40;align=center;fillColor=#b0e3e6;strokeColor=#0e8088;" parent="KRRsPl_IIyR4YD8K1_N0-129" vertex="1">
          <mxGeometry x="7.607164109549548" y="299.72226591625224" width="325.4344806065297" height="187.13623709491887" as="geometry" />
        </mxCell>
        <mxCell id="KRRsPl_IIyR4YD8K1_N0-126" value="복지부서" style="whiteSpace=wrap;html=1;labelBackgroundColor=none;fontSize=40;align=center;fillColor=#b1ddf0;strokeColor=#10739e;" parent="KRRsPl_IIyR4YD8K1_N0-129" vertex="1">
          <mxGeometry x="921.8057181387761" y="46.3182010563854" width="460.90285906938806" height="118.94252357727896" as="geometry" />
        </mxCell>
        <mxCell id="KRRsPl_IIyR4YD8K1_N0-128" value="지하복도" style="whiteSpace=wrap;html=1;labelBackgroundColor=none;fontSize=40;fontColor=#333333;align=center;fillColor=#f5f5f5;strokeColor=#666666;" parent="KRRsPl_IIyR4YD8K1_N0-129" vertex="1">
          <mxGeometry x="421.25530129997827" y="330.62552397545886" width="520.3741957235027" height="95.5851855097908" as="geometry" />
        </mxCell>
        <mxCell id="KRRsPl_IIyR4YD8K1_N0-104" value="기록부서" style="whiteSpace=wrap;html=1;labelBackgroundColor=none;fontSize=40;align=center;fillColor=#bac8d3;strokeColor=#23445d;aspect=fixed;" parent="KRRsPl_IIyR4YD8K1_N0-129" vertex="1">
          <mxGeometry x="1039.35" y="507.78" width="410.65" height="179.81" as="geometry" />
        </mxCell>
        <mxCell id="KRRsPl_IIyR4YD8K1_N0-186" value="보급부서" style="whiteSpace=wrap;html=1;labelBackgroundColor=none;fontSize=40;align=center;fillColor=#fad7ac;strokeColor=#b46504;aspect=fixed;" parent="KRRsPl_IIyR4YD8K1_N0-129" vertex="1">
          <mxGeometry x="1040.644010795426" y="187.31193862918917" width="352.9876290113181" height="148.05062790005329" as="geometry" />
        </mxCell>
        <mxCell id="KRRsPl_IIyR4YD8K1_N0-160" value="폐쇄동" style="whiteSpace=wrap;html=1;labelBackgroundColor=none;fontSize=40;fontColor=#333333;align=center;fillColor=#f5f5f5;strokeColor=#666666;aspect=fixed;" parent="KRRsPl_IIyR4YD8K1_N0-184" vertex="1">
          <mxGeometry x="111.06603737678554" y="8.370141181428862" width="1137.8933874329334" height="232.92910867217125" as="geometry" />
        </mxCell>
        <mxCell id="KRRsPl_IIyR4YD8K1_N0-216" style="edgeStyle=orthogonalEdgeStyle;rounded=0;orthogonalLoop=1;jettySize=auto;html=1;entryX=0;entryY=0.5;entryDx=0;entryDy=0;strokeColor=#000000;fontSize=16;fontColor=#000000;" parent="1" source="KRRsPl_IIyR4YD8K1_N0-208" target="KRRsPl_IIyR4YD8K1_N0-213" edge="1">
          <mxGeometry relative="1" as="geometry" />
        </mxCell>
        <mxCell id="KRRsPl_IIyR4YD8K1_N0-208" value="Supply Center&lt;br&gt;보급부서 해금" style="whiteSpace=wrap;html=1;fontSize=16;align=center;fillColor=#fad7ac;strokeColor=#b46504;" parent="1" vertex="1">
          <mxGeometry x="3600" y="1700" width="220" height="80" as="geometry" />
        </mxCell>
        <mxCell id="KRRsPl_IIyR4YD8K1_N0-217" style="edgeStyle=orthogonalEdgeStyle;rounded=0;orthogonalLoop=1;jettySize=auto;html=1;entryX=0;entryY=0.5;entryDx=0;entryDy=0;strokeColor=#000000;fontSize=16;fontColor=#000000;" parent="1" source="KRRsPl_IIyR4YD8K1_N0-213" target="KRRsPl_IIyR4YD8K1_N0-177" edge="1">
          <mxGeometry relative="1" as="geometry" />
        </mxCell>
        <mxCell id="KRRsPl_IIyR4YD8K1_N0-213" value="luninescence&lt;br&gt;발광" style="whiteSpace=wrap;html=1;fontSize=16;align=center;fillColor=#fad7ac;strokeColor=#b46504;rounded=1;" parent="1" vertex="1">
          <mxGeometry x="3940" y="1700" width="240" height="80" as="geometry" />
        </mxCell>
        <mxCell id="KRRsPl_IIyR4YD8K1_N0-219" style="edgeStyle=orthogonalEdgeStyle;rounded=0;orthogonalLoop=1;jettySize=auto;html=1;entryX=0;entryY=0.5;entryDx=0;entryDy=0;strokeColor=#000000;fontSize=16;fontColor=#000000;" parent="1" source="KRRsPl_IIyR4YD8K1_N0-64" target="KRRsPl_IIyR4YD8K1_N0-208" edge="1">
          <mxGeometry relative="1" as="geometry">
            <Array as="points">
              <mxPoint x="3310" y="1109" />
              <mxPoint x="3310" y="1740" />
            </Array>
          </mxGeometry>
        </mxCell>
        <mxCell id="KRRsPl_IIyR4YD8K1_N0-253" value="" style="group" parent="1" vertex="1" connectable="0">
          <mxGeometry x="3050" y="660" width="370" height="135" as="geometry" />
        </mxCell>
        <mxCell id="KRRsPl_IIyR4YD8K1_N0-256" value="&lt;span style=&quot;font-size: 16px ; background-color: rgb(253 , 253 , 253)&quot;&gt;Roche limit&lt;/span&gt;" style="whiteSpace=wrap;html=1;" parent="KRRsPl_IIyR4YD8K1_N0-253" vertex="1">
          <mxGeometry x="150" y="75" width="220" height="60" as="geometry" />
        </mxCell>
        <mxCell id="KRRsPl_IIyR4YD8K1_N0-265" style="edgeStyle=orthogonalEdgeStyle;rounded=0;orthogonalLoop=1;jettySize=auto;html=1;entryX=0;entryY=0.25;entryDx=0;entryDy=0;strokeColor=#000000;fontSize=16;fontColor=#000000;" parent="1" source="KRRsPl_IIyR4YD8K1_N0-264" target="KRRsPl_IIyR4YD8K1_N0-10" edge="1">
          <mxGeometry relative="1" as="geometry" />
        </mxCell>
        <mxCell id="KRRsPl_IIyR4YD8K1_N0-264" value="&lt;font style=&quot;font-size: 27px;&quot;&gt;Main Quest: HIdden exit finding&lt;br style=&quot;font-size: 27px;&quot;&gt;메인 퀘스트: 숨겨진 출구 찾기&lt;br style=&quot;font-size: 27px;&quot;&gt;&lt;/font&gt;" style="shape=hexagon;perimeter=hexagonPerimeter2;whiteSpace=wrap;html=1;fixedSize=1;fontSize=27;" parent="1" vertex="1">
          <mxGeometry x="-550" y="220" width="490" height="180" as="geometry" />
        </mxCell>
        <mxCell id="KRRsPl_IIyR4YD8K1_N0-269" style="edgeStyle=orthogonalEdgeStyle;rounded=0;orthogonalLoop=1;jettySize=auto;html=1;fontSize=27;entryX=0;entryY=0.5;entryDx=0;entryDy=0;fontColor=#CC0000;strokeColor=#CC0000;" parent="1" source="KRRsPl_IIyR4YD8K1_N0-266" target="KRRsPl_IIyR4YD8K1_N0-10" edge="1">
          <mxGeometry relative="1" as="geometry">
            <mxPoint y="510" as="targetPoint" />
            <Array as="points">
              <mxPoint y="693" />
              <mxPoint y="360" />
            </Array>
          </mxGeometry>
        </mxCell>
        <mxCell id="KRRsPl_IIyR4YD8K1_N0-266" value="&lt;font style=&quot;font-size: 27px&quot;&gt;Hidden Quest: Exterminate&lt;br style=&quot;font-size: 27px&quot;&gt;숨겨진 퀘스트: 몰살&lt;br style=&quot;font-size: 27px&quot;&gt;&lt;/font&gt;" style="shape=hexagon;perimeter=hexagonPerimeter2;whiteSpace=wrap;html=1;fixedSize=1;fontSize=27;" parent="1" vertex="1">
          <mxGeometry x="-550" y="620" width="490" height="146" as="geometry" />
        </mxCell>
        <mxCell id="KRRsPl_IIyR4YD8K1_N0-268" style="edgeStyle=orthogonalEdgeStyle;rounded=0;orthogonalLoop=1;jettySize=auto;html=1;strokeColor=#000000;fontSize=27;fontColor=#000000;" parent="1" source="KRRsPl_IIyR4YD8K1_N0-267" edge="1">
          <mxGeometry relative="1" as="geometry">
            <mxPoint x="-20" y="310" as="targetPoint" />
            <Array as="points">
              <mxPoint x="-20" y="512" />
              <mxPoint x="-20" y="310" />
            </Array>
          </mxGeometry>
        </mxCell>
        <mxCell id="KRRsPl_IIyR4YD8K1_N0-267" value="&lt;font style=&quot;font-size: 27px&quot;&gt;Hidden Quest: Cultivation&lt;br style=&quot;font-size: 27px&quot;&gt;숨겨진 퀘스트: &lt;br&gt;만나는 모든 중간이상개체를 교화&lt;br style=&quot;font-size: 27px&quot;&gt;&lt;/font&gt;" style="shape=hexagon;perimeter=hexagonPerimeter2;whiteSpace=wrap;html=1;fixedSize=1;fontSize=27;" parent="1" vertex="1">
          <mxGeometry x="-560" y="438.5" width="490" height="146" as="geometry" />
        </mxCell>
        <mxCell id="KRRsPl_IIyR4YD8K1_N0-296" style="edgeStyle=orthogonalEdgeStyle;rounded=0;orthogonalLoop=1;jettySize=auto;html=1;entryX=0;entryY=0.5;entryDx=0;entryDy=0;strokeColor=#000000;fontSize=27;fontColor=#CC0000;" parent="1" source="KRRsPl_IIyR4YD8K1_N0-288" target="KRRsPl_IIyR4YD8K1_N0-292" edge="1">
          <mxGeometry relative="1" as="geometry" />
        </mxCell>
        <mxCell id="KRRsPl_IIyR4YD8K1_N0-288" value="Main Computer of information team&lt;br&gt;정보 열람가능" style="whiteSpace=wrap;html=1;fontSize=16;align=center;fillColor=#b0e3e6;strokeColor=#0e8088;labelBackgroundColor=none;rounded=1;" parent="1" vertex="1">
          <mxGeometry x="3650" y="880" width="260" height="80" as="geometry" />
        </mxCell>
        <mxCell id="KRRsPl_IIyR4YD8K1_N0-290" style="edgeStyle=orthogonalEdgeStyle;rounded=0;orthogonalLoop=1;jettySize=auto;html=1;entryX=0;entryY=0.5;entryDx=0;entryDy=0;strokeColor=#000000;fontSize=27;fontColor=#CC0000;" parent="1" source="KRRsPl_IIyR4YD8K1_N0-283" target="KRRsPl_IIyR4YD8K1_N0-288" edge="1">
          <mxGeometry relative="1" as="geometry" />
        </mxCell>
        <mxCell id="KRRsPl_IIyR4YD8K1_N0-283" value="&lt;font&gt;&lt;span style=&quot;font-size: 16px&quot;&gt;Quest: subjugation information Center&lt;/span&gt;&lt;br&gt;&lt;span style=&quot;font-size: 16px&quot;&gt;퀘스트: 정보부서 제압&lt;/span&gt;&lt;br&gt;&lt;/font&gt;" style="shape=hexagon;perimeter=hexagonPerimeter2;whiteSpace=wrap;html=1;fixedSize=1;fillColor=#b0e3e6;strokeColor=#0e8088;labelBackgroundColor=none;" parent="1" vertex="1">
          <mxGeometry x="3200" y="880" width="380" height="80" as="geometry" />
        </mxCell>
        <mxCell id="KRRsPl_IIyR4YD8K1_N0-291" style="edgeStyle=orthogonalEdgeStyle;rounded=0;orthogonalLoop=1;jettySize=auto;html=1;entryX=0;entryY=0.5;entryDx=0;entryDy=0;strokeColor=#000000;fontSize=27;fontColor=#CC0000;" parent="1" source="KRRsPl_IIyR4YD8K1_N0-64" target="KRRsPl_IIyR4YD8K1_N0-283" edge="1">
          <mxGeometry relative="1" as="geometry" />
        </mxCell>
        <mxCell id="KRRsPl_IIyR4YD8K1_N0-294" style="edgeStyle=orthogonalEdgeStyle;rounded=0;orthogonalLoop=1;jettySize=auto;html=1;entryX=0;entryY=0.5;entryDx=0;entryDy=0;strokeColor=#000000;fontSize=27;fontColor=#CC0000;" parent="1" source="KRRsPl_IIyR4YD8K1_N0-292" target="KRRsPl_IIyR4YD8K1_N0-293" edge="1">
          <mxGeometry relative="1" as="geometry" />
        </mxCell>
        <mxCell id="KRRsPl_IIyR4YD8K1_N0-292" value="&lt;font&gt;&lt;span style=&quot;font-size: 16px&quot;&gt;Quest: subjugation Record Center&lt;/span&gt;&lt;br&gt;&lt;span style=&quot;font-size: 16px&quot;&gt;퀘스트: 기록부서 제압&lt;/span&gt;&lt;br&gt;&lt;/font&gt;" style="shape=hexagon;perimeter=hexagonPerimeter2;whiteSpace=wrap;html=1;fixedSize=1;fillColor=#b0e3e6;strokeColor=#0e8088;labelBackgroundColor=none;" parent="1" vertex="1">
          <mxGeometry x="3980" y="640" width="380" height="80" as="geometry" />
        </mxCell>
        <mxCell id="KRRsPl_IIyR4YD8K1_N0-304" style="edgeStyle=orthogonalEdgeStyle;rounded=0;orthogonalLoop=1;jettySize=auto;html=1;entryX=0;entryY=0.5;entryDx=0;entryDy=0;strokeColor=#000000;fontSize=27;fontColor=#000000;" parent="1" source="KRRsPl_IIyR4YD8K1_N0-293" target="KRRsPl_IIyR4YD8K1_N0-303" edge="1">
          <mxGeometry relative="1" as="geometry" />
        </mxCell>
        <mxCell id="KRRsPl_IIyR4YD8K1_N0-293" value="Main Computer of information team&lt;br&gt;정보 열람가능" style="whiteSpace=wrap;html=1;fontSize=16;align=center;fillColor=#b0e3e6;strokeColor=#0e8088;labelBackgroundColor=none;rounded=1;" parent="1" vertex="1">
          <mxGeometry x="4430" y="640" width="260" height="80" as="geometry" />
        </mxCell>
        <mxCell id="KRRsPl_IIyR4YD8K1_N0-298" style="edgeStyle=orthogonalEdgeStyle;rounded=0;orthogonalLoop=1;jettySize=auto;html=1;entryX=0;entryY=0.5;entryDx=0;entryDy=0;fontSize=27;strokeColor=#007FFF;" parent="1" source="KRRsPl_IIyR4YD8K1_N0-64" target="KRRsPl_IIyR4YD8K1_N0-292" edge="1">
          <mxGeometry relative="1" as="geometry">
            <Array as="points">
              <mxPoint x="3120" y="1109" />
              <mxPoint x="3120" y="680" />
            </Array>
          </mxGeometry>
        </mxCell>
        <mxCell id="KRRsPl_IIyR4YD8K1_N0-306" style="edgeStyle=orthogonalEdgeStyle;rounded=0;orthogonalLoop=1;jettySize=auto;html=1;entryX=0;entryY=0.5;entryDx=0;entryDy=0;strokeColor=#000000;fontSize=27;fontColor=#000000;" parent="1" source="KRRsPl_IIyR4YD8K1_N0-303" target="KRRsPl_IIyR4YD8K1_N0-305" edge="1">
          <mxGeometry relative="1" as="geometry" />
        </mxCell>
        <mxCell id="KRRsPl_IIyR4YD8K1_N0-303" value="&lt;font&gt;&lt;span style=&quot;font-size: 16px&quot;&gt;Quest: subjugation Research Center&lt;/span&gt;&lt;br&gt;&lt;span style=&quot;font-size: 16px&quot;&gt;퀘스트: 연구부서 제압&lt;/span&gt;&lt;br&gt;&lt;/font&gt;" style="shape=hexagon;perimeter=hexagonPerimeter2;whiteSpace=wrap;html=1;fixedSize=1;fillColor=#b0e3e6;strokeColor=#0e8088;labelBackgroundColor=none;" parent="1" vertex="1">
          <mxGeometry x="4750" y="400" width="380" height="80" as="geometry" />
        </mxCell>
        <mxCell id="KRRsPl_IIyR4YD8K1_N0-309" style="edgeStyle=orthogonalEdgeStyle;rounded=0;orthogonalLoop=1;jettySize=auto;html=1;entryX=0;entryY=0.5;entryDx=0;entryDy=0;strokeColor=#000000;fontSize=27;fontColor=#000000;" parent="1" source="KRRsPl_IIyR4YD8K1_N0-305" target="KRRsPl_IIyR4YD8K1_N0-308" edge="1">
          <mxGeometry relative="1" as="geometry" />
        </mxCell>
        <mxCell id="KRRsPl_IIyR4YD8K1_N0-305" value="Closure&lt;br&gt;폐쇄동 해금" style="whiteSpace=wrap;html=1;fontSize=16;align=center;fillColor=#b0e3e6;strokeColor=#0e8088;labelBackgroundColor=none;rounded=1;" parent="1" vertex="1">
          <mxGeometry x="5180" y="400" width="260" height="80" as="geometry" />
        </mxCell>
        <mxCell id="KRRsPl_IIyR4YD8K1_N0-310" style="edgeStyle=orthogonalEdgeStyle;rounded=0;orthogonalLoop=1;jettySize=auto;html=1;entryX=0;entryY=0.5;entryDx=0;entryDy=0;strokeColor=#000000;fontSize=27;fontColor=#000000;" parent="1" source="KRRsPl_IIyR4YD8K1_N0-308" target="KRRsPl_IIyR4YD8K1_N0-35" edge="1">
          <mxGeometry relative="1" as="geometry" />
        </mxCell>
        <mxCell id="KRRsPl_IIyR4YD8K1_N0-308" value="&lt;font style=&quot;font-size: 16px&quot;&gt;Closure:the whole story of the incident&lt;br&gt;폐쇄동: 사건의 전말&lt;br&gt;&lt;/font&gt;" style="rounded=0;whiteSpace=wrap;html=1;labelBackgroundColor=none;strokeColor=#000000;fillColor=#FFFFFF;fontSize=27;fontColor=#000000;" parent="1" vertex="1">
          <mxGeometry x="5480" y="400" width="320" height="80" as="geometry" />
        </mxCell>
        <mxCell id="KRRsPl_IIyR4YD8K1_N0-311" style="edgeStyle=orthogonalEdgeStyle;rounded=0;orthogonalLoop=1;jettySize=auto;html=1;entryX=0;entryY=0.5;entryDx=0;entryDy=0;fontSize=27;fontColor=#000000;strokeColor=#0066CC;" parent="1" source="KRRsPl_IIyR4YD8K1_N0-64" target="KRRsPl_IIyR4YD8K1_N0-303" edge="1">
          <mxGeometry relative="1" as="geometry">
            <Array as="points">
              <mxPoint x="3120" y="1109" />
              <mxPoint x="3120" y="440" />
            </Array>
          </mxGeometry>
        </mxCell>
        <mxCell id="KRRsPl_IIyR4YD8K1_N0-229" value="&lt;span style=&quot;font-size: 16px ; background-color: rgb(253 , 253 , 253)&quot;&gt;resonance of instablility&lt;/span&gt;" style="whiteSpace=wrap;html=1;" parent="1" vertex="1">
          <mxGeometry x="3200" y="800" width="220" height="60" as="geometry" />
        </mxCell>
        <mxCell id="KRRsPl_IIyR4YD8K1_N0-238" value="&lt;span style=&quot;font-size: 16px ; background-color: rgb(253 , 253 , 253)&quot;&gt;imaginary vector&lt;/span&gt;" style="whiteSpace=wrap;html=1;" parent="1" vertex="1">
          <mxGeometry x="4020" y="510" width="220" height="60" as="geometry" />
        </mxCell>
        <mxCell id="KRRsPl_IIyR4YD8K1_N0-312" style="edgeStyle=orthogonalEdgeStyle;rounded=0;orthogonalLoop=1;jettySize=auto;html=1;entryX=0;entryY=0.5;entryDx=0;entryDy=0;fontSize=27;fontColor=#000000;" parent="1" source="KRRsPl_IIyR4YD8K1_N0-87" target="KRRsPl_IIyR4YD8K1_N0-229" edge="1">
          <mxGeometry relative="1" as="geometry">
            <Array as="points">
              <mxPoint x="3000" y="415" />
              <mxPoint x="3000" y="830" />
            </Array>
          </mxGeometry>
        </mxCell>
        <mxCell id="KRRsPl_IIyR4YD8K1_N0-314" style="edgeStyle=orthogonalEdgeStyle;rounded=0;orthogonalLoop=1;jettySize=auto;html=1;entryX=0;entryY=0.5;entryDx=0;entryDy=0;strokeColor=#000000;fontSize=27;fontColor=#000000;" parent="1" source="KRRsPl_IIyR4YD8K1_N0-87" target="KRRsPl_IIyR4YD8K1_N0-238" edge="1">
          <mxGeometry relative="1" as="geometry">
            <Array as="points">
              <mxPoint x="3860" y="415" />
              <mxPoint x="3860" y="540" />
            </Array>
          </mxGeometry>
        </mxCell>
        <mxCell id="KRRsPl_IIyR4YD8K1_N0-254" value="&lt;span style=&quot;font-size: 16px ; background-color: rgb(253 , 253 , 253)&quot;&gt;topology turbulence&lt;/span&gt;" style="whiteSpace=wrap;html=1;" parent="1" vertex="1">
          <mxGeometry x="4020" y="580" width="220" height="60" as="geometry" />
        </mxCell>
        <mxCell id="KRRsPl_IIyR4YD8K1_N0-316" style="edgeStyle=orthogonalEdgeStyle;rounded=0;orthogonalLoop=1;jettySize=auto;html=1;entryX=0;entryY=0.5;entryDx=0;entryDy=0;strokeColor=#000000;fontSize=27;fontColor=#000000;" parent="1" source="KRRsPl_IIyR4YD8K1_N0-87" target="KRRsPl_IIyR4YD8K1_N0-254" edge="1">
          <mxGeometry relative="1" as="geometry">
            <Array as="points">
              <mxPoint x="3860" y="415" />
              <mxPoint x="3860" y="610" />
            </Array>
          </mxGeometry>
        </mxCell>
        <mxCell id="KRRsPl_IIyR4YD8K1_N0-257" value="" style="endArrow=classic;html=1;strokeColor=#000000;fontSize=16;fontColor=#000000;entryX=0;entryY=0.5;entryDx=0;entryDy=0;rounded=0;exitX=1;exitY=0.5;exitDx=0;exitDy=0;" parent="1" source="KRRsPl_IIyR4YD8K1_N0-87" target="KRRsPl_IIyR4YD8K1_N0-256" edge="1">
          <mxGeometry width="50" height="50" relative="1" as="geometry">
            <mxPoint x="3370" y="690" as="sourcePoint" />
            <mxPoint x="3210" y="850" as="targetPoint" />
            <Array as="points">
              <mxPoint x="3000" y="415" />
              <mxPoint x="3000" y="765" />
            </Array>
          </mxGeometry>
        </mxCell>
      </root>
    </mxGraphModel>
  </diagram>
</mxfile>
